HIERARCHY
ROOT Hips
{
	OFFSET 0.000000 88.474243 0.000000
	CHANNELS 6 Xposition Yposition Zposition Zrotation Yrotation Xrotation 
	JOINT Hips_Spine
	{
		OFFSET 0.000000 0.000000 0.000000
		CHANNELS 3 Zrotation Yrotation Xrotation
		JOINT Spine
		{
			OFFSET 0.005100 8.711998 -0.691000
			CHANNELS 3 Zrotation Yrotation Xrotation
			JOINT Spine1
			{
				OFFSET -0.009200 8.660301 -1.275000
				CHANNELS 3 Zrotation Yrotation Xrotation
				JOINT Spine2
				{
					OFFSET 0.006300 9.852501 -1.857000
					CHANNELS 3 Zrotation Yrotation Xrotation
					JOINT Spine2_Neck
					{
						OFFSET 0.000000 0.000000 0.000000
						CHANNELS 3 Zrotation Yrotation Xrotation
						JOINT Neck
						{
							OFFSET 0.016300 11.420799 -0.263300
							CHANNELS 3 Zrotation Yrotation Xrotation
							End Site #name: Head
							{
								OFFSET -0.019200 9.262405 2.362500
							}
						}
					}
					JOINT Spine2_LeftShoulder
					{
						OFFSET 0.000000 0.000000 0.000000
						CHANNELS 3 Zrotation Yrotation Xrotation
						JOINT LeftShoulder
						{
							OFFSET 5.616900 6.732201 -0.345700
							CHANNELS 3 Zrotation Yrotation Xrotation
							JOINT LeftArm
							{
								OFFSET 10.664888 -0.183372 -2.440700
								CHANNELS 3 Zrotation Yrotation Xrotation
								JOINT LeftForeArm
								{
									OFFSET 27.459126 0.000000 0.000000
									CHANNELS 3 Zrotation Yrotation Xrotation
									End Site #name: LeftHand
									{
										OFFSET 21.306858 0.000000 0.000000
									}
								}
							}
						}
					}
					JOINT Spine2_RightShoulder
					{
						OFFSET 0.000000 0.000000 0.000000
						CHANNELS 3 Zrotation Yrotation Xrotation
						JOINT RightShoulder
						{
							OFFSET -5.580300 6.737503 -0.344400
							CHANNELS 3 Zrotation Yrotation Xrotation
							JOINT RightArm
							{
								OFFSET -10.679335 -0.188484 -2.383900
								CHANNELS 3 Zrotation Yrotation Xrotation
								JOINT RightForeArm
								{
									OFFSET -27.503529 0.000000 0.000000
									CHANNELS 3 Zrotation Yrotation Xrotation
									End Site #name: RightHand
									{
										OFFSET -21.306808 0.000000 0.000000
									}
								}
							}
						}
					}
				}
			}
		}
	}
	JOINT Hips_LeftUpLeg
	{
		OFFSET 0.000000 0.000000 0.000000
		CHANNELS 3 Zrotation Yrotation Xrotation
		JOINT LeftUpLeg
		{
			OFFSET 6.857700 -6.739601 0.312100
			CHANNELS 3 Zrotation Yrotation Xrotation
			JOINT LeftLeg
			{
				OFFSET -0.367590 -34.731552 -4.572400
				CHANNELS 3 Zrotation Yrotation Xrotation
				End Site #name: LeftFoot
				{
					OFFSET 0.367590 -34.656704 -6.067400
				}
			}
		}
	}
	JOINT Hips_RightUpLeg
	{
		OFFSET 0.000000 0.000000 0.000000
		CHANNELS 3 Zrotation Yrotation Xrotation
		JOINT RightUpLeg
		{
			OFFSET -6.876100 -6.733299 0.301000
			CHANNELS 3 Zrotation Yrotation Xrotation
			JOINT RightLeg
			{
				OFFSET 0.347353 -34.795158 -4.515900
				CHANNELS 3 Zrotation Yrotation Xrotation
				End Site #name: RightFoot
				{
					OFFSET -0.347353 -34.589367 -6.070300
				}
			}
		}
	}
}
MOTION
Frames: 17
Frame Time: 0.041667
0.023807 0.019349 -0.018718 -4.093377 0.348964 -3.534434 0.000000 0.000000 0.000000 1.970494 1.622413 18.175954 1.014961 1.196708 1.806040 0.000000 0.000000 0.000000 1.086541 0.792083 0.017553 1.924738 -0.943868 5.181270 0.961072 0.380039 1.735209 -10.317148 -8.469470 1.911858 -62.820201 1.221640 13.333342 0.435963 -26.179240 -0.026587 1.606066 0.741292 1.982765 8.805624 -7.343502 -0.129917 68.640472 7.339669 33.512342 -0.080793 33.733149 0.972218 0.000000 0.000000 0.000000 6.244641 8.129359 -68.272187 6.015532 -4.757077 63.781356 0.000000 0.000000 0.000000 -5.682940 -6.872539 -57.342891 -1.858991 -0.888410 64.382021 
0.032759 0.050762 -0.096390 -3.994126 1.545688 -1.717398 0.000000 0.000000 -0.000000 1.867700 0.224248 15.292791 0.774967 0.491256 1.377170 0.000000 0.000000 0.000000 1.031180 0.598694 0.761422 1.773283 -0.972366 4.500095 1.096109 0.618152 1.581249 -9.486866 -4.961509 0.482639 -67.109127 -3.039967 7.771997 -0.076226 -29.755430 0.919940 0.610923 0.463642 1.516131 8.339322 -7.403560 -0.004959 70.304229 11.248451 24.900571 0.046828 33.558255 0.505770 0.000000 0.000000 -0.000000 5.869810 8.494746 -69.878720 6.222605 -4.153044 62.277587 0.000000 0.000000 0.000000 -4.915266 -7.630462 -60.309439 -0.993148 -0.755968 64.103396 
0.026734 0.040922 -0.150659 -3.610154 2.516083 -1.005957 -0.000000 0.000000 -0.000000 2.692490 0.114888 16.483921 0.673609 0.525281 1.334185 0.000000 0.000000 0.000000 0.861872 0.414390 0.895191 2.086604 -0.223428 3.836560 0.897894 0.570438 1.405215 -10.263958 -3.651145 0.021187 -66.385511 -1.824415 9.605749 -0.002396 -30.050285 0.783422 0.611300 0.514590 1.542116 7.608064 -7.354426 -0.031155 69.951573 13.000651 23.797313 0.048449 36.326414 0.149583 -0.000000 0.000000 -0.000000 5.870322 7.998108 -70.429283 5.733670 -4.618130 61.465361 0.000000 0.000000 -0.000000 -5.522295 -7.076526 -61.474454 -0.824909 -0.873868 65.089693 
0.023606 0.022791 -0.205409 -3.618519 2.731388 -0.858987 -0.000000 0.000000 -0.000000 2.859164 0.659617 17.483441 0.615259 0.486919 1.698196 0.000000 0.000000 0.000000 0.925152 0.455706 0.929870 1.727714 -0.221571 4.698700 0.833576 0.463120 1.479830 -9.432342 -2.845319 -0.164985 -67.625984 -3.779471 7.914638 -0.012230 -30.223216 0.758662 0.703208 0.521672 1.884171 7.372390 -7.959507 -0.116078 71.784514 15.216244 23.213118 -0.041035 40.870414 -0.005196 -0.000000 0.000000 -0.000000 5.881967 7.711248 -69.635464 5.698634 -4.655698 60.165288 0.000000 0.000000 -0.000000 -5.541781 -7.309423 -62.550492 -0.395358 -0.771795 66.344266 
0.026231 0.012033 -0.257459 -3.627375 2.850453 -0.924925 -0.000000 0.000000 -0.000000 2.859578 0.883386 18.455578 0.583772 0.434940 1.819714 0.000000 0.000000 0.000000 0.925641 0.445551 1.026852 1.849345 -0.264948 5.467163 0.784060 0.371658 1.513614 -9.084836 -2.479402 -0.234318 -67.823103 -5.159097 6.300773 0.005929 -31.235123 0.734794 0.709830 0.492746 2.211173 7.966459 -8.401238 -0.252576 73.104476 17.040134 23.614233 -0.092693 44.184214 -0.056290 -0.000000 0.000000 -0.000000 5.852824 7.727025 -69.332463 5.641326 -4.499439 59.844600 0.000000 0.000000 -0.000000 -5.721456 -7.373193 -63.350031 -0.314810 -0.796069 67.354030 
0.031062 0.008223 -0.305329 -3.650078 2.825910 -1.059994 -0.000000 0.000000 -0.000000 2.881891 0.744995 19.204813 0.577368 0.381203 1.907028 0.000000 0.000000 0.000000 0.914342 0.403653 1.158026 1.952148 -0.303814 6.039679 0.777559 0.321343 1.617052 -9.055507 -2.354396 -0.253812 -67.628130 -5.616509 6.062243 0.025045 -32.355369 0.694616 0.693961 0.443466 2.362141 8.462137 -8.360293 -0.232768 73.462319 18.344430 23.627257 -0.121956 46.139342 -0.064827 -0.000000 0.000000 -0.000000 5.906896 7.936799 -69.188516 5.627323 -4.437109 60.001686 0.000000 0.000000 -0.000000 -5.875704 -7.368656 -63.662052 -0.321570 -0.819171 67.937706 
0.035882 0.009905 -0.350080 -3.684139 2.753096 -1.157075 -0.000000 0.000000 -0.000000 2.939494 0.541731 19.725004 0.575461 0.344173 1.945084 0.000000 0.000000 0.000000 0.910110 0.368742 1.241802 2.026316 -0.363574 6.377524 0.782421 0.298239 1.678909 -8.956019 -1.966063 -0.337411 -67.325908 -5.613416 6.392134 0.041542 -33.547350 0.700801 0.682093 0.406662 2.401619 8.766747 -8.162267 -0.162311 73.612794 19.034079 23.778004 -0.109550 47.034615 -0.023994 -0.000000 0.000000 -0.000000 5.980766 8.043102 -69.067698 5.642893 -4.416002 60.146699 0.000000 0.000000 -0.000000 -5.935153 -7.364277 -63.675443 -0.345508 -0.823537 68.087338 
0.037838 0.013586 -0.392689 -3.703445 2.709721 -1.203473 -0.000000 0.000000 -0.000000 3.001857 0.431227 19.990425 0.558223 0.320703 1.963988 0.000000 0.000000 0.000000 0.901288 0.346168 1.283534 2.051267 -0.387428 6.614192 0.783096 0.293395 1.731271 -8.826463 -1.529135 -0.418016 -67.000202 -5.423293 6.993879 0.053015 -34.772545 0.708506 0.664662 0.396384 2.404712 8.790199 -7.956328 -0.084013 73.727974 19.179114 23.370882 -0.075047 47.615408 0.025782 -0.000000 0.000000 -0.000000 6.019179 8.037697 -69.005553 5.641813 -4.414073 60.208119 0.000000 0.000000 -0.000000 -5.950910 -7.351333 -63.543191 -0.372777 -0.834327 68.015308 
0.033440 0.017635 -0.434166 -3.721458 2.692878 -1.202120 -0.000000 0.000000 -0.000000 3.036660 0.359320 20.169590 0.544167 0.315868 1.967415 0.000000 0.000000 0.000000 0.888994 0.339658 1.299615 2.039965 -0.404925 6.780824 0.775291 0.300709 1.751444 -8.686041 -1.114980 -0.502336 -66.787151 -4.983029 7.510425 0.060766 -35.828032 0.711785 0.643913 0.396252 2.383789 8.651915 -7.790841 -0.050012 73.843578 19.077769 22.458876 -0.045928 48.901967 0.074137 -0.000000 0.000000 -0.000000 6.041795 8.001613 -68.980224 5.606475 -4.447816 60.220495 0.000000 0.000000 -0.000000 -5.943753 -7.344772 -63.455397 -0.378775 -0.839824 67.930850 
0.023835 0.021578 -0.474922 -3.736442 2.691114 -1.184607 -0.000000 0.000000 -0.000000 3.083515 0.300670 20.371330 0.528035 0.318002 1.948392 0.000000 0.000000 0.000000 0.867947 0.339956 1.275149 1.997977 -0.421756 6.915811 0.758785 0.307552 1.728888 -8.615994 -0.742652 -0.592650 -66.698599 -4.561912 7.972724 0.067523 -36.802936 0.716648 0.618055 0.399006 2.349516 8.468338 -7.777507 -0.033582 73.942138 18.825531 21.287688 -0.016448 51.970521 0.120969 -0.000000 0.000000 -0.000000 6.056461 7.945509 -68.974061 5.564142 -4.493231 60.197472 0.000000 0.000000 -0.000000 -5.921341 -7.343420 -63.459500 -0.381554 -0.833147 67.920108 
0.009873 0.025649 -0.515189 -3.749313 2.700893 -1.169103 -0.000000 0.000000 -0.000000 3.132889 0.228119 20.602194 0.505580 0.319546 1.915610 0.000000 0.000000 0.000000 0.840436 0.339955 1.233463 1.960315 -0.426432 7.036061 0.734155 0.310093 1.691324 -8.564150 -0.384554 -0.684512 -66.734525 -4.251077 8.379721 0.072428 -38.253579 0.716566 0.586363 0.402979 2.314580 8.278091 -7.866059 -0.030648 73.976493 18.474349 19.950759 0.015296 56.166686 0.172768 -0.000000 0.000000 -0.000000 6.074008 7.892050 -68.987818 5.524667 -4.533211 60.176004 0.000000 0.000000 -0.000000 -5.897454 -7.344376 -63.510898 -0.392844 -0.827897 67.959690 
-0.007530 0.030351 -0.555151 -3.760459 2.716043 -1.157112 -0.000000 0.000000 -0.000000 3.180488 0.143889 20.863155 0.481053 0.319556 1.888305 0.000000 0.000000 0.000000 0.809365 0.339482 1.194400 1.927869 -0.432003 7.144969 0.705723 0.310057 1.650298 -8.520224 -0.040267 -0.769919 -66.843156 -4.022379 8.739323 0.075807 -39.986646 0.722661 0.552537 0.405634 2.285010 8.098461 -8.005910 -0.039076 73.919888 18.117545 18.472037 0.057866 61.279710 0.239171 -0.000000 0.000000 -0.000000 6.089756 7.850566 -69.022591 5.495892 -4.564966 60.182418 0.000000 0.000000 -0.000000 -5.874250 -7.348470 -63.581478 -0.398925 -0.821906 68.022208 
-0.027470 0.035675 -0.594990 -3.770735 2.730473 -1.155855 -0.000000 0.000000 0.000000 3.223363 0.060782 21.114808 0.455877 0.316678 1.870598 0.000000 0.000000 0.000000 0.777058 0.337616 1.161561 1.904935 -0.440816 7.253800 0.677493 0.307554 1.615614 -8.489141 0.261428 -0.845039 -66.994656 -3.873860 9.077058 0.068597 -42.066486 0.743014 0.517158 0.407424 2.259726 7.906303 -8.213537 -0.057267 73.700391 17.766020 17.015214 0.120743 67.157884 0.336361 -0.000000 0.000000 -0.000000 6.104133 7.829093 -69.058766 5.473189 -4.590370 60.199621 0.000000 0.000000 -0.000000 -5.853719 -7.349939 -63.648347 -0.407036 -0.815991 68.091143 
-0.049274 0.041623 -0.634771 -3.779590 2.743376 -1.161720 0.000000 0.000000 0.000000 3.251500 -0.013539 21.335790 0.430643 0.312993 1.856935 0.000000 0.000000 0.000000 0.743949 0.335091 1.135323 1.889934 -0.453779 7.366541 0.651005 0.304903 1.586823 -8.470079 0.547114 -0.913666 -67.135782 -3.747647 9.401557 0.059890 -43.889172 0.763105 0.480053 0.410097 2.237526 7.709614 -8.397659 -0.069514 73.301186 17.403722 15.525231 0.193476 72.529886 0.429858 0.000000 0.000000 -0.000000 6.115482 7.812922 -69.088777 5.454830 -4.614879 60.221922 0.000000 0.000000 -0.000000 -5.837723 -7.349873 -63.698906 -0.413046 -0.812177 68.145886 
-0.072235 0.048164 -0.674657 -3.786267 2.756658 -1.170884 0.000000 0.000000 0.000000 3.268121 -0.082786 21.527748 0.406533 0.308880 1.848035 0.000000 0.000000 0.000000 0.711059 0.332031 1.115283 1.880023 -0.471233 7.489052 0.626021 0.301531 1.562439 -8.462457 0.812344 -0.972016 -67.241523 -3.557040 9.669913 0.052766 -45.586289 0.779829 0.442539 0.412292 2.193040 7.471070 -8.504833 -0.073563 72.939822 16.897375 14.518839 0.318318 78.219723 0.535437 0.000000 0.000000 -0.000000 6.125629 7.804116 -69.103605 5.440316 -4.636291 60.241977 0.000000 0.000000 -0.000000 -5.823927 -7.351232 -63.730313 -0.419186 -0.809846 68.188449 
-0.095592 0.055245 -0.714873 -3.793184 2.766732 -1.180538 0.000000 0.000000 0.000000 3.273354 -0.148377 21.692354 0.383983 0.303625 1.842460 0.000000 0.000000 0.000000 0.679076 0.327210 1.098858 1.872035 -0.489553 7.616237 0.602278 0.297465 1.541037 -8.450512 1.070822 -1.028676 -67.298875 -3.324322 9.858090 0.045743 -47.184709 0.796893 0.405034 0.412300 2.133884 7.133196 -8.545336 -0.061401 72.537622 16.476032 13.791953 0.708289 84.003216 0.898714 0.000000 0.000000 -0.000000 6.134612 7.797675 -69.111049 5.426642 -4.657842 60.260824 0.000000 0.000000 -0.000000 -5.815067 -7.354188 -63.749824 -0.425601 -0.809236 68.221262 
-0.118652 0.062741 -0.755502 -3.797725 2.780882 -1.192798 0.000000 0.000000 0.000000 3.275185 -0.212238 21.838691 0.363462 0.296830 1.840283 0.000000 0.000000 0.000000 0.648130 0.321240 1.088226 1.863246 -0.509616 7.747741 0.579717 0.292123 1.520523 -8.441293 1.311735 -1.080021 -67.345482 -3.086974 10.060840 0.037045 -48.789029 0.815077 0.371469 0.411053 2.069551 6.752399 -8.579580 -0.044563 72.149400 15.989308 12.831184 3.933032 88.754293 4.106037 0.000000 0.000000 -0.000000 6.143521 7.793616 -69.109931 5.413418 -4.676208 60.274380 0.000000 0.000000 -0.000000 -5.804574 -7.351767 -63.766003 -0.429780 -0.808264 68.247989 
